<?xml version="1.0" encoding="UTF-8" standalone="no"?>
<!-- Uploaded to: SVG Repo, www.svgrepo.com, Generator: SVG Repo Mixer Tools -->

<svg
   fill="#000000"
   width="730.32233"
   height="805.159"
   viewBox="0 0 29.212893 32.20636"
   version="1.1"
   id="svg260"
   sodipodi:docname="jenkins.svg"
   xmlns:inkscape="http://www.inkscape.org/namespaces/inkscape"
   xmlns:sodipodi="http://sodipodi.sourceforge.net/DTD/sodipodi-0.dtd"
   xmlns="http://www.w3.org/2000/svg"
   xmlns:svg="http://www.w3.org/2000/svg">
  <defs
     id="defs264" />
  <sodipodi:namedview
     id="namedview262"
     pagecolor="#505050"
     bordercolor="#eeeeee"
     borderopacity="1"
     inkscape:showpageshadow="0"
     inkscape:pageopacity="0"
     inkscape:pagecheckerboard="0"
     inkscape:deskcolor="#505050"
     showgrid="false" />
  <path
     d="m 2.4321743,32.10636 h -1.297 c -0.036,-0.088 -0.067,-0.177 -0.093,-0.26 -0.28700004,-0.891 -0.79200004,-1.991 -0.92100004,-2.876 -0.199,-1.312 1.03600004,-1.385 1.83300004,-1.952 1.219,-0.881 2.177,-1.365 3.5,-2.163 0.396,-0.233 1.577,-0.828 1.708,-1.104 0.265,-0.541 -0.459,-1.307 -0.651,-1.733 -0.303,-0.672 -0.464,-1.251 -0.505,-1.912 -1.099,-0.177 -1.937,-0.839 -2.459,-1.579 -0.839,-1.233 -1.421,-3.515 -0.697,-5.249 0.057,-0.136 0.339,-0.407 0.38,-0.62 0.077,-0.412 -0.141,-0.959 -0.161,-1.396 -0.084,-2.2549996 0.38,-4.1969996 1.9,-4.8799996 0.615,-2.453 2.819,-3.271 4.896,-4.489 0.7759997,-0.459 1.6359997,-0.751 2.5209997,-1.07899998 3.161,-1.167 8.036,-0.948 10.661,1.04699998 1.115,0.844 2.901,2.625 3.541,3.917 1.683,3.407 1.557,9.1039996 0.38,13.2489996 -0.161,0.557 -0.385,1.376 -0.708,2.043 -0.224,0.463 -0.921,1.4 -0.833,1.812 0.084,0.421 1.584,1.563 1.907,1.86 0.577,0.561 1.683,1.301 1.765,2 0.093,0.744 -0.328,1.78 -0.547,2.5 -0.287,0.963 -0.579,1.921 -0.869,2.843 H 2.4321743 Z m 14.8079997,-4.719 c -0.724,-0.401 -1.813,-0.828 -2.756,-1.011 -1.156,-0.219 -1.036,1.584 -1,2.656 0.041,0.86 0.484,1.756 0.683,2.328 0.099,0.261 0.12,0.548 0.344,0.6 0.396,0.088 1.719,-0.439 2.099,-0.641 0.797,-0.437 1.416,-1.125 2.099,-1.583 0.021,-0.229 0.021,-0.453 0.041,-0.677 -0.4,-0.199 -0.859,-0.344 -1.463,-0.369 0.416,-0.204 1,-0.204 1.38,-0.444 l 0.02,-0.26 c -0.661,-0.036 -0.916,-0.339 -1.359,-0.577 z m 9.943,3.912 c 0.255,-0.824 0.473,-1.625 0.619,-2.333 0.079,-0.387 0.287,-1.224 0.235,-1.568 -0.077,-0.615 -0.911,-1.068 -1.339,-1.448 -0.776,-0.704 -1.265,-1.303 -2.077,-1.964 -0.333,0.5 -1.043,0.823 -1.313,1.219 1.933,-0.916 2.281,3.5 1.521,4.923 0.12,0.437 0.521,0.599 0.688,0.979 l -0.115,0.224 h 1.719 c 0.015,0 0.041,0 0.057,0.016 z m -8.85,-0.016 c -0.068,-0.099 -0.136,-0.183 -0.199,-0.276 l -0.4,0.255 h 0.599 z m 3.692,0 c 0.011,-0.276 0.027,-0.537 0.043,-0.797 -0.709,0.036 -1.1,-0.64 -1.595,-0.703 -0.432,-0.057 -0.801,0.479 -1.359,0.26 -0.131,0.141 -0.245,0.303 -0.38,0.423 0.203,0.239 0.391,0.5 0.563,0.776 h 1.088 c 0.021,-0.219 0.183,-0.381 0.401,-0.381 0.218,0 0.38,0.163 0.38,0.365 h 0.88 z m 2.824,0 c -0.417,-0.641 -1.261,-1.199 -2.24,-0.74 l -0.041,0.719 h 2.281 z m -11.344,0 -0.141,-0.459 c -0.301,-0.964 -0.479,-1.683 -0.541,-2.24 -1.219,-0.583 -2.5,-1.161 -3.5359997,-1.9 -0.204,-0.141 -1.48,-1.803 -1.641,-1.74 -2.323,0.901 -4.479,2.479 -6.421,3.979 0.344,0.74 0.64,1.521 0.921,2.319 H 13.485174 Z m 11.016,-2.817 c -0.037,-0.683 -0.22,-2.079 -0.636,-2.319 -0.88,-0.52 -2.464,1.037 -3.125,1.256 0.063,0.197 0.183,0.359 0.204,0.64 0.38,-0.099 0.859,-0.036 1.197,0.125 -0.401,0.036 -0.839,0.036 -1.099,0.219 -0.099,0.255 0.02,0.636 -0.043,1.016 0.923,0.265 2,0.405 3.183,0.443 0.219,-0.303 0.303,-0.86 0.281,-1.443 z m -5.438,-0.48 c -0.063,0.5 0.057,0.683 0.157,1.256 1.681,0.52 1.38,-2.319 -0.177,-1.276 z m -8.796,-1.88 c -0.5999997,0.609 1.692,1.443 2.416,1.484 0,-0.385 0.219,-0.749 0.183,-1.025 -0.865,-0.156 -2.005,-0.052 -2.593,-0.464 z m 7.416,0.287 c 0,0.057 -0.077,0.036 -0.088,0.083 0.776,0.604 1.353,0.729 2.405,0.683 0.469,-0.349 0.891,-0.749 1.391,-1.079 -1.14,0.1 -2.577,0.813 -3.703,0.308 z m 4.562,-23.6359996 c -2.14,-1.208 -5.801,-2.11999998 -8.099,-0.973 -1.844,0.921 -4.3649997,2.453 -5.2029997,4.391 0.801,1.864 -0.22,3.577 -0.297,5.4729996 -0.027,1.011 0.479,1.896 0.521,2.995 -0.272,0.448 -1.105,0.505 -1.683,0.475 -0.193,-0.975 -0.537,-2.068 -1.541,-2.177 -1.417,-0.151 -2.459,1.021 -2.521,2.245 -0.079,1.443 1.115,3.823 2.781,3.661 0.651,-0.063 0.812,-0.719 1.52,-0.719 0.381,0.76 -0.593,1 -0.697,1.536 -0.021,0.14 0.079,0.683 0.141,0.943 0.307,1.255 0.989,2.875 1.656,3.839 0.848,1.197 2.5149997,1.401 4.3069997,1.521 0.317,-0.699 1.5,-0.641 2.276,-0.459 -0.921,-0.365 -1.781,-1.261 -2.5,-2.041 -0.823,-0.901 -1.64,-1.881 -1.683,-3.043 1.543,2.141 2.797,4 5.6,4.943 2.12,0.699 4.599,-0.339 6.219,-1.479 0.681,-0.479 1.083,-1.24 1.563,-1.921 1.796,-2.579 2.64,-6.276 2.457,-9.86 -0.077,-1.479 -0.077,-2.9589996 -0.577,-3.9369996 -0.521,-1.041 -2.261,-1.964 -3.303,-1.041 -0.197,-1.021 0.839,-1.641 2.063,-1.281 -0.88,-1.141 -1.781,-2.48 -3.021,-3.177 z m -5.552,17.2089996 c 0.817,2.061 3.636,1.817 6.011,1.765 -0.115,0.26 -0.344,0.577 -0.625,0.687 -0.755,0.308 -2.859,0.543 -3.916,-0.015 -0.672,-0.365 -1.1,-1.167 -1.469,-1.636 -0.183,-0.229 -1.057,-0.812 -0.016,-0.812 z m 0.219,-1.163 c 1.193,0.62 3.36,0.693 4.975,0.641 0.088,0.359 0.088,0.792 0.093,1.219 -2.068,0.109 -4.516,-0.407 -5.063,-1.86 z m 8.901,-0.776 c -0.631,1.199 -1.527,2.527 -3.385,2.568 -0.032,-0.375 -0.057,-0.979 0,-1.203 1.416,-0.141 2.301,-0.865 3.391,-1.36 z m -0.865,-0.89 c -1.359,0.881 -2.875,1.833 -5.099,1.615 -0.468,-0.416 -0.645,-1.339 -0.187,-1.948 0.239,0.423 0.077,1.183 0.76,1.292 1.26,0.224 2.719,-0.771 3.64,-1.12 0.557,-0.948 -0.063,-1.296 -0.561,-1.905 -1.043,-1.245 -2.439,-2.803 -2.401,-4.683 0.416,-0.297 0.463,0.464 0.52,0.599 0.543,1.281 1.901,2.901 2.901,4 0.24,0.281 0.641,0.521 0.677,0.704 0.125,0.515 -0.339,1.135 -0.276,1.479 z m -17.9209997,-0.9 c -0.416,-0.245 -0.521,-1.319 -1.021,-1.344 -0.713,-0.041 -0.583,1.396 -0.583,2.235 -0.495,-0.437 -0.579,-1.819 -0.219,-2.516 -0.412,-0.203 -0.593,0.219 -0.823,0.375 0.291,-2.12 3.12,-0.973 2.651,1.281 z m -2.156,-8.1419996 c -0.917,1.011 -0.719,2.9009996 -0.615,4.2559996 1.661,-1.048 3.864,0.077 3.844,1.859 0.796,-0.021 0.296,-0.995 0.156,-1.62 -0.475,-2.041 0.787,-4.2489996 0.052,-6.1199996 -1.417,0.109 -2.584,0.688 -3.437,1.615 z m 12.1609997,1.484 c 0.407,0.7509996 0.536,1.5319996 1.12,2.0949996 0.255,0.255 0.76,0.568 0.515,1.271 -0.061,0.161 -0.489,0.521 -0.733,0.599 -0.901,0.26 -3.005,0.041 -2.297,-1.077 0.751,0.015 1.751,0.479 2.308,-0.063 -0.417,-0.699 -1.177,-2.043 -0.896,-2.8389996 z m 8.26,-0.014 h 0.095 c 0.437,0.8909996 0.796,1.8329996 1.337,2.6199996 -0.359,0.839 -2.739,1.588 -2.697,0.077 0.521,-0.229 1.401,-0.047 1.86,-0.333 -0.256,-0.744 -0.641,-1.344 -0.579,-2.3639996 z m -9.235,-2.156 c -1.895,-0.439 -2.843,0.791 -3.411,2.072 -0.516,-0.124 -0.313,-0.823 -0.183,-1.177 0.339,-0.937 1.708,-2.176 2.823,-2.009 0.48,0.077 1.136,0.515 0.771,1.115 z m -4.613,-5.178 c -2.0839997,0.583 -4.7509997,2.093 -5.6049997,3.963 0.663,-0.093 1.12,-0.427 1.776,-0.468 0.251,-0.021 0.568,0.099 0.855,0.02 0.568,-0.14 1.041,-1.421 1.469,-1.88 0.4159997,-0.457 0.9109997,-0.661 1.2549997,-1.077 0.219,-0.12 0.541,-0.099 0.563,-0.443 -0.099,-0.1 -0.203,-0.177 -0.312,-0.141 z"
     id="path258"
     style="stroke:#000000;stroke-width:0.2;stroke-dasharray:none;stroke-opacity:1" />
</svg>
