<?xml version="1.0" encoding="UTF-8" standalone="no"?>
<!-- Created with Inkscape (http://www.inkscape.org/) -->

<svg
   width="186.83598mm"
   height="191.12177mm"
   viewBox="0 0 186.83598 191.12177"
   version="1.1"
   id="svg5"
   xml:space="preserve"
   xmlns:inkscape="http://www.inkscape.org/namespaces/inkscape"
   xmlns:sodipodi="http://sodipodi.sourceforge.net/DTD/sodipodi-0.dtd"
   xmlns="http://www.w3.org/2000/svg"
   xmlns:svg="http://www.w3.org/2000/svg"><sodipodi:namedview
     id="namedview7"
     pagecolor="#505050"
     bordercolor="#eeeeee"
     borderopacity="1"
     inkscape:showpageshadow="0"
     inkscape:pageopacity="0"
     inkscape:pagecheckerboard="0"
     inkscape:deskcolor="#505050"
     inkscape:document-units="mm"
     showgrid="false" /><defs
     id="defs2" /><g
     inkscape:label="Capa 1"
     inkscape:groupmode="layer"
     id="layer1"
     transform="translate(-2.3721221,-49.568247)"><path
       style="fill:#000000;stroke-width:0.264583"
       d="m 14.053843,240.31541 c -2.45572,-0.87536 -4.1347805,-3.14794 -4.1347805,-5.59636 0,-2.37398 0.7319105,-3.90582 5.2829505,-11.05702 3.62139,-5.69039 6.67242,-12.87176 7.4344,-17.49874 0.56504,-3.43115 0.22234,-4.28985 -4.40447,-11.03619 -8.06019,-11.75252 -13.2856805,-25.54487 -15.3612805,-40.54511 -0.65457,-4.73052 -0.66734,-18.49192 -0.0219,-23.57237 1.72071,-13.54367 5.66783,-24.94747 12.7541805,-36.848645 12.0547,-20.24531 33.54178,-36.03631 56.89004,-41.80888 9.07797,-2.24442 13.41816,-2.77852 22.62187,-2.7838 7.738607,-0.004 10.521657,0.2477 17.594787,1.59411 13.91056,2.64796 28.0967,8.91471 39.88254,17.61819 7.24237,5.34826 15.59818,14.07801 20.53169,21.45053 16.15553,24.142395 20.26468,52.484625 11.76568,81.151905 -2.08633,7.0372 -6.66795,16.61019 -11.20669,23.41563 -9.14163,13.70705 -21.78551,24.79771 -36.63155,32.1316 -13.53234,6.68491 -26.52377,9.79919 -40.878127,9.79919 -13.3174,0 -25.8568,-2.81552 -37.91614,-8.51345 -2.78456,-1.31568 -3.56216,-1.5773 -4.36563,-1.46881 -0.53768,0.0726 -2.42745,0.96316 -4.1995,1.97902 -9.1038,5.21892 -27.97501,12.00067 -33.29059,11.96364 -0.72761,-0.005 -1.78399,-0.17357 -2.34752,-0.37444 z m 74.83235,-50.81667 c 3.87014,-1.00805 7.71566,-4.16499 9.49758,-7.79696 3.078517,-6.27474 1.715487,-13.85692 -3.30199,-18.36806 -1.86239,-1.67446 -3.80781,-2.71989 -6.19976,-3.33165 -3.62796,-0.92787 -6.84224,-0.53652 -10.23462,1.24613 -3.38625,1.77942 -6.06058,5.18582 -7.22973,9.20879 -0.71337,2.45462 -0.60709,6.32961 0.24672,8.99583 2.00653,6.2659 7.37464,10.4049 13.53919,10.43921 1.16997,0.007 2.82714,-0.17047 3.68261,-0.39329 z m 28.042397,-26.77878 c 2.36022,-1.657 3.04779,-4.73008 1.73199,-7.74109 -4.77615,-10.92945 -15.90141,-19.16643 -28.392147,-21.02113 -5.57994,-0.82854 -10.0992,-0.41137 -15.17971,1.40122 -4.79017,1.70902 -5.79933,2.4303 -6.82085,4.87513 -1.05741,2.53074 0.21657,5.76923 2.78499,7.07954 1.71679,0.87584 3.61177,0.71318 6.16235,-0.52895 3.3383,-1.62575 6.25203,-2.22099 9.96218,-2.03516 1.67697,0.084 3.96712,0.3912 5.10217,0.68442 7.02606,1.81503 13.205637,7.11688 16.428167,14.09476 0.49085,1.06285 1.16287,2.2139 1.49337,2.55788 1.71163,1.78141 4.69249,2.06205 6.72749,0.63338 z m 23.36715,-9.65244 c 1.40948,-0.93275 2.29666,-2.7555 2.3003,-4.7261 0.002,-1.26095 -0.21584,-1.92569 -1.48519,-4.52519 -1.73875,-3.56075 -5.81765,-9.9163 -8.54301,-13.31132 -7.54628,-9.40049 -18.10417,-16.33779 -30.19848,-19.84258 -6.844437,-1.98344 -16.935567,-2.76682 -24.187797,-1.8777 -6.38584,0.7829 -11.58219,2.17867 -16.27187,4.3707 -2.61376,1.22172 -3.62419,2.05963 -4.38911,3.63976 -2.01427,4.16091 1.29628,9.06593 5.70928,8.45908 0.58359,-0.0803 2.43918,-0.85624 4.12352,-1.72441 5.08676,-2.62189 9.37812,-3.63994 16.51672,-3.91828 10.82686,-0.42216 21.121497,2.47799 30.162497,8.49722 7.83483,5.21619 14.63463,13.24041 17.80049,21.00576 1.14885,2.81797 1.69912,3.58339 3.08167,4.28665 1.52921,0.77784 3.92602,0.62926 5.38098,-0.33359 z m 21.30421,-8.24253 c 1.89352,-0.81018 3.18183,-3.03239 3.1634,-5.45654 -0.009,-1.12761 -0.29058,-2.11039 -1.25266,-4.36562 -4.9242,-11.54284 -10.71672,-20.58531 -18.08125,-28.22593 -10.33871,-10.726285 -22.86578,-17.949405 -37.48226,-21.612295 -6.92136,-1.73449 -12.802077,-2.41698 -20.826117,-2.41698 -12.81997,0 -23.76639,2.38079 -33.65706,7.32024 -6.31228,3.15238 -7.52168,4.29073 -7.74494,7.28992 -0.10762,1.44579 -0.0264,1.85059 0.62513,3.115275 1.00159,1.94421 2.39632,2.90816 4.47824,3.09508 1.45837,0.13094 1.69421,0.0676 3.54663,-0.95191 9.72072,-5.350125 17.66121,-7.695925 28.74905,-8.493115 10.38395,-0.74658 21.504377,1.08652 31.908727,5.25985 15.23505,6.110995 28.56321,19.047745 36.69756,35.619865 1.28571,2.61937 2.5394,5.39127 2.78598,6.15977 0.24658,0.7685 0.76003,1.76771 1.14099,2.22046 1.34958,1.60389 4.04375,2.25695 5.94858,1.44193 z"
       id="path930" /></g></svg>
